<?xml version="1.0" standalone="no"?>
<!DOCTYPE svg PUBLIC "-//W3C//DTD SVG 20010904//EN"
 "http://www.w3.org/TR/2001/REC-SVG-20010904/DTD/svg10.dtd">
<svg version="1.0" xmlns="http://www.w3.org/2000/svg"
 width="500.000000pt" height="500.000000pt" viewBox="0 0 500.000000 500.000000"
 preserveAspectRatio="xMidYMid meet">
<metadata>
Created by potrace 1.14, written by Peter Selinger 2001-2017
</metadata>
<g transform="translate(0.000000,500.000000) scale(0.100000,-0.100000)"
fill="#000000" stroke="none">
<path d="M1180 3195 l0 -145 175 0 175 0 0 -635 0 -635 -175 0 -175 0 0 -145
0 -145 540 0 540 0 0 145 0 145 -180 0 -180 0 0 635 0 635 180 0 180 0 0 145
0 145 -540 0 -540 0 0 -145z"/>
<path d="M2530 3190 l0 -150 280 0 280 0 0 -775 0 -775 185 0 185 0 0 775 0
775 285 0 285 0 0 150 0 150 -750 0 -750 0 0 -150z"/>
</g>
</svg>
